<svg width="23" height="19" viewBox="0 0 23 19" fill="none" xmlns="http://www.w3.org/2000/svg">
<path fill-rule="evenodd" clip-rule="evenodd" d="M21.5934 11.2244C21.0277 10.7891 20.2915 10.6425 19.6022 10.8278L15.6797 11.7297C15.8646 10.9487 15.682 10.126 15.1841 9.4965C14.6861 8.86701 13.9276 8.49991 13.125 8.5H8.43188C7.63581 8.498 6.87196 8.81428 6.31031 9.37844L4.18969 11.5H1.5C0.671573 11.5 0 12.1716 0 13V16.75C0 17.5784 0.671573 18.25 1.5 18.25H11.25C11.3113 18.25 11.3724 18.2425 11.4319 18.2275L17.4319 16.7275C17.4701 16.7184 17.5075 16.7058 17.5434 16.69L21.1875 15.1394L21.2288 15.1206C21.9407 14.7649 22.4189 14.0671 22.4939 13.2747C22.5688 12.4823 22.2299 11.7073 21.5972 11.2244H21.5934ZM1.5 13H3.75V16.75H1.5V13ZM20.5716 13.7697L17.0091 15.2866L11.1562 16.75H5.25V12.5603L7.37156 10.4397C7.6519 10.1571 8.03383 9.99873 8.43188 10H13.125C13.7463 10 14.25 10.5037 14.25 11.125C14.25 11.7463 13.7463 12.25 13.125 12.25H10.5C10.0858 12.25 9.75 12.5858 9.75 13C9.75 13.4142 10.0858 13.75 10.5 13.75H13.5C13.5565 13.7498 13.6127 13.7436 13.6678 13.7312L19.9491 12.2866L19.9781 12.2791C20.3752 12.1688 20.7915 12.3758 20.9433 12.7589C21.0952 13.1421 20.9336 13.578 20.5688 13.7697H20.5716ZM15.375 7C15.5603 7.00021 15.7453 6.98516 15.9281 6.955C16.5005 8.65521 18.303 9.6105 20.0314 9.12964C21.7597 8.64878 22.8098 6.89983 22.4219 5.1483C22.0339 3.39677 20.3435 2.25482 18.5737 2.54875C18.0243 0.915778 16.3331 -0.0411983 14.6504 0.328699C12.9676 0.698596 11.8336 2.2766 12.0197 3.98945C12.2057 5.70229 13.6521 7.00002 15.375 7ZM21 5.875C21 6.91053 20.1605 7.75 19.125 7.75C18.0895 7.75 17.25 6.91053 17.25 5.875C17.25 4.83947 18.0895 4 19.125 4C20.1605 4 21 4.83947 21 5.875ZM15.375 1.75C16.2156 1.75042 16.9532 2.31021 17.1797 3.11969C16.403 3.66619 15.8925 4.51466 15.7734 5.45687C15.6425 5.48515 15.509 5.4996 15.375 5.5C14.3395 5.5 13.5 4.66053 13.5 3.625C13.5 2.58947 14.3395 1.75 15.375 1.75Z" fill="#1C170D"/>
</svg>
