<svg width="20" height="19" viewBox="0 0 20 19" fill="none" xmlns="http://www.w3.org/2000/svg">
<path fill-rule="evenodd" clip-rule="evenodd" d="M19.2372 3.28849L10.2372 0.288493C10.0832 0.237169 9.91677 0.237169 9.76281 0.288493L0.762813 3.28849C0.456545 3.39059 0.249976 3.67722 0.25 4.00006V11.5001C0.25 11.9143 0.585786 12.2501 1 12.2501C1.41421 12.2501 1.75 11.9143 1.75 11.5001V5.04068L4.89906 6.08974C3.15695 8.90426 4.02321 12.5979 6.835 14.3444C5.1475 15.0063 3.68875 16.2035 2.62187 17.8404C2.47087 18.0648 2.45242 18.3532 2.5736 18.595C2.69477 18.8369 2.93679 18.9947 3.20697 19.0081C3.47714 19.0215 3.7336 18.8884 3.87813 18.6597C5.29094 16.4922 7.52219 15.2501 10 15.2501C12.4778 15.2501 14.7091 16.4922 16.1219 18.6597C16.3508 18.9999 16.8104 19.0933 17.1539 18.8693C17.4973 18.6453 17.5972 18.187 17.3781 17.8404C16.3112 16.2035 14.8469 15.0063 13.165 14.3444C15.9739 12.5981 16.8399 8.90796 15.1009 6.09443L19.2372 4.71631C19.5435 4.61427 19.7502 4.32762 19.7502 4.00474C19.7502 3.68186 19.5435 3.39522 19.2372 3.29318V3.28849ZM14.5 9.25006C14.5006 11.2033 13.241 12.9339 11.3822 13.5338C9.52336 14.1337 7.48976 13.466 6.34833 11.881C5.2069 10.296 5.21831 8.15563 6.37656 6.58287L9.76281 7.70787C9.91677 7.75919 10.0832 7.75919 10.2372 7.70787L13.6234 6.58287C14.1932 7.35536 14.5005 8.29015 14.5 9.25006ZM10 6.20974L3.37187 4.00006L10 1.79037L16.6281 4.00006L10 6.20974Z" fill="#1C170D"/>
</svg>
