<svg width="20" height="20" viewBox="0 0 20 20" fill="none" xmlns="http://www.w3.org/2000/svg">
<path d="M15.832 14.1667C15.5959 14.1667 15.398 14.0868 15.2383 13.9271C15.0786 13.7674 14.9987 13.5694 14.9987 13.3333V11.6667H13.332C13.0959 11.6667 12.898 11.5868 12.7383 11.4271C12.5786 11.2674 12.4987 11.0694 12.4987 10.8333C12.4987 10.5972 12.5786 10.3993 12.7383 10.2396C12.898 10.0799 13.0959 10 13.332 10H14.9987V8.33333C14.9987 8.09722 15.0786 7.89931 15.2383 7.73958C15.398 7.57986 15.5959 7.5 15.832 7.5C16.0681 7.5 16.2661 7.57986 16.4258 7.73958C16.5855 7.89931 16.6654 8.09722 16.6654 8.33333V10H18.332C18.5681 10 18.7661 10.0799 18.9258 10.2396C19.0855 10.3993 19.1654 10.5972 19.1654 10.8333C19.1654 11.0694 19.0855 11.2674 18.9258 11.4271C18.7661 11.5868 18.5681 11.6667 18.332 11.6667H16.6654V13.3333C16.6654 13.5694 16.5855 13.7674 16.4258 13.9271C16.2661 14.0868 16.0681 14.1667 15.832 14.1667ZM9.16537 16.9375C8.97092 16.9375 8.77648 16.9028 8.58203 16.8333C8.38759 16.7639 8.21398 16.6528 8.0612 16.5C7.45009 15.9444 6.72786 15.3125 5.89453 14.6042C5.0612 13.8958 4.26953 13.1354 3.51953 12.3229C2.76953 11.5104 2.13411 10.6597 1.61328 9.77083C1.09245 8.88194 0.832031 7.97917 0.832031 7.0625C0.832031 5.75694 1.26953 4.67014 2.14453 3.80208C3.01953 2.93403 4.10981 2.5 5.41536 2.5C6.13759 2.5 6.82509 2.64931 7.47786 2.94792C8.13064 3.24653 8.69314 3.67361 9.16537 4.22917C9.63759 3.67361 10.2001 3.24653 10.8529 2.94792C11.5056 2.64931 12.1931 2.5 12.9154 2.5C13.7904 2.5 14.5647 2.70486 15.2383 3.11458C15.9119 3.52431 16.4431 4.04167 16.832 4.66667C16.9848 4.93056 16.9605 5.19792 16.7591 5.46875C16.5577 5.73958 16.2695 5.86111 15.8945 5.83333H15.5612C14.3806 5.83333 13.2973 6.30903 12.3112 7.26042C11.3251 8.21181 10.832 9.40278 10.832 10.8333C10.832 11.4167 10.9258 11.9688 11.1133 12.4896C11.3008 13.0104 11.5959 13.4861 11.9987 13.9167C12.1515 14.0833 12.2174 14.2778 12.1966 14.5C12.1758 14.7222 12.082 14.9097 11.9154 15.0625L10.2695 16.5208C10.1168 16.6736 9.94314 16.7812 9.7487 16.8438C9.55425 16.9062 9.35981 16.9375 9.16537 16.9375Z" fill="white"/>
</svg>
