<svg width="109" height="30" viewBox="0 0 109 30" fill="none" xmlns="http://www.w3.org/2000/svg">
<path d="M25.6 0.543405C21.9763 -0.156793 19.8927 -0.205075 16.0516 0.543405C14.2655 0.778829 12.2228 2.47635 7.94839 6.45272C6.9499 7.48526 5.9226 8.32824 4.43633 9.30786C3.29386 10.0609 1.88021 10.8946 0 11.9573C2.02061 12.9468 3.70831 13.6178 5.21349 13.9788C8.52189 14.7723 10.9485 14.0682 14.0903 11.9573C14.4052 11.8238 14.7091 11.6966 15.0039 11.5757C15.1046 11.5343 15.2043 11.4938 15.3029 11.4539C15.8176 11.2459 16.3046 11.0579 16.7728 10.8898C17.4591 10.6433 18.105 10.4394 18.7389 10.2777C19.3732 10.116 19.9954 9.99638 20.6338 9.91857C21.2657 9.84155 21.9134 9.80543 22.6046 9.80975C23.0661 9.81263 23.547 9.83355 24.0554 9.87237C24.1394 9.87878 24.2241 9.88568 24.3097 9.89307C23.6279 9.44023 22.9939 9.05837 22.3908 8.74561C22.3 8.69851 22.2099 8.65297 22.1204 8.60899C21.6146 8.36049 21.1294 8.16184 20.6544 8.0119C20.3126 7.90402 19.976 7.82135 19.6408 7.76348C19.538 7.74573 19.4353 7.73031 19.3327 7.71722C17.5639 7.49153 15.8004 7.95455 13.471 9.0431C14.3785 8.04518 15.0564 7.35062 15.857 6.79484C16.1829 6.56858 16.5292 6.36532 16.9196 6.17396C17.5603 5.85994 18.3198 5.57796 19.3032 5.27895C19.3502 5.27502 19.3982 5.27211 19.4472 5.27026C20.0291 5.2484 20.7618 5.37795 21.7836 5.77268C22.4032 6.01207 23.1292 6.34899 23.9924 6.80883C24.0772 6.85395 24.1632 6.90026 24.2506 6.94777C24.3657 7.01038 24.4832 7.07508 24.603 7.14193C24.6317 7.15791 24.6605 7.174 24.6894 7.19022C24.7989 7.25165 24.9104 7.31486 25.024 7.37987C25.2084 7.48544 25.3981 7.5958 25.5935 7.7111C25.804 7.83539 26.0211 7.96543 26.2449 8.10145C26.3579 8.17014 26.4726 8.24034 26.5891 8.3121C27.0418 8.59097 27.5209 8.89326 28.0286 9.22063C28.1297 9.28584 28.232 9.35205 28.3354 9.41926C28.5385 9.55128 28.7461 9.68718 28.9581 9.82708C28.9913 9.84898 29.0246 9.87098 29.0581 9.89307C29.2852 9.91219 29.4703 9.91961 29.6191 9.91014C29.9799 9.88717 30.1269 9.7648 30.1409 9.46884C30.1418 9.44913 30.1422 9.42865 30.1419 9.40737L24.8258 6.0075L25.6 5.64322L32.9806 10.3383C33.0013 10.3411 33.0216 10.3439 33.0416 10.3466C33.11 10.3557 33.1749 10.3639 33.2362 10.3711C33.2606 10.3739 33.2844 10.3766 33.3076 10.3791C34.1564 10.4713 34.2685 10.3475 33.8581 9.89307L26.9419 5.07658L27.871 4.67183L34.6323 9.0431C34.6915 9.04786 34.7492 9.05234 34.8054 9.05653C34.9859 9.07 35.1504 9.08042 35.3 9.08729L35.3081 9.08766C35.658 9.10349 35.9256 9.09964 36.1236 9.06932C36.4474 9.01976 36.5853 8.89949 36.5935 8.67883L25.6 0.543405Z" fill="url(#paint0_linear_616_1324)"/>
<path fill-rule="evenodd" clip-rule="evenodd" d="M19.0183 11.0966L18.7334 11.1063C18.6921 11.1257 18.6674 11.1386 18.6591 11.1451C18.6261 11.171 17.8911 12.1586 16.4542 14.1079L14.2121 17.1192C13.9892 17.3588 13.5886 17.4883 13.0106 17.5078C12.8537 17.5078 12.7587 17.5272 12.7257 17.566L12.6142 17.9546C12.6142 17.974 12.6307 17.9967 12.6637 18.0226L12.7009 18.0517H12.7876C12.7959 18.0517 13.0106 18.0453 13.4317 18.0323C14.0428 18.0194 14.6911 18.0258 15.3765 18.0517H15.5252L15.5623 18.0226C15.5954 17.9967 15.6284 17.9222 15.6614 17.7992L15.7234 17.6049L15.711 17.5757C15.6779 17.5304 15.6036 17.5078 15.488 17.5078C15.2155 17.4883 15.0379 17.4398 14.9554 17.362C14.8975 17.3167 14.8852 17.2617 14.9182 17.1969C14.9265 17.1645 15.0627 16.9735 15.327 16.6238L15.6986 16.1089H17.1231C17.8097 16.1089 18.2459 16.1124 18.4318 16.1193C18.4654 16.2781 18.5135 16.4297 18.576 16.5738C18.5823 16.6333 18.5894 16.6985 18.5972 16.7695C18.6385 17.1904 18.655 17.4041 18.6467 17.4106C18.6302 17.4365 18.527 17.4624 18.337 17.4883C18.271 17.4883 18.1388 17.4948 17.9406 17.5078C17.7177 17.5078 17.5979 17.5272 17.5814 17.566C17.4988 17.715 17.4576 17.8413 17.4576 17.9449C17.4576 17.9708 17.4741 17.9967 17.5071 18.0226L17.5443 18.0517H17.6929C18.3759 18.0226 19.2358 18.0171 20.2725 18.0351C20.5653 18.1362 20.8863 18.2065 21.2356 18.246H21.2975C21.6279 18.2719 21.9293 18.2719 22.2018 18.246C22.5982 18.2072 22.9326 18.1456 23.2052 18.0614C23.585 17.9578 23.8988 17.8186 24.1466 17.6437L24.2457 17.5757L24.32 17.6535C24.4026 17.7312 24.5306 17.8251 24.704 17.9352C24.8609 18.0323 24.9641 18.0614 25.0137 18.0226C25.0385 18.0032 25.1541 17.6697 25.3605 17.0221C25.5587 16.3745 25.6702 16.0409 25.695 16.0215C25.7197 16.0021 25.7404 15.9891 25.7569 15.9827C25.823 15.9568 26.0088 15.9438 26.3143 15.9438H26.5001L26.5373 15.9147C26.5703 15.8888 26.6075 15.8143 26.6488 15.6912C26.6818 15.5617 26.6942 15.4873 26.6859 15.4678C26.6529 15.4225 26.529 15.4031 26.3143 15.4095C25.3316 15.4354 24.3117 15.4322 23.2547 15.3998H23.0441L23.007 15.429C22.9739 15.4549 22.9368 15.5293 22.8955 15.6524C22.8625 15.7819 22.8501 15.8564 22.8583 15.8758C22.8914 15.9211 23.0895 15.9438 23.4529 15.9438C23.9401 15.9503 24.2168 15.9665 24.2828 15.9924C24.3159 15.9924 24.3324 15.9989 24.3324 16.0118C24.3324 15.9989 24.2292 16.3162 24.0227 16.9638C23.9566 17.0933 23.8328 17.2196 23.6511 17.3426L23.552 17.4009C23.007 17.7053 22.3339 17.7959 21.5329 17.6729C21.414 17.6517 21.3022 17.6267 21.1975 17.5979C21.1941 17.5844 21.1821 17.5641 21.1613 17.5369L21.1117 17.5078H20.924C20.8207 17.4673 20.7264 17.4219 20.641 17.3718C20.3768 17.2293 20.1745 17.048 20.0341 16.8278C20.0108 16.7919 19.9893 16.7546 19.9696 16.716C19.9368 16.4098 19.8953 16.0077 19.845 15.5098C19.856 15.4393 19.8695 15.3671 19.8854 15.293C19.9432 14.9821 20.0423 14.6583 20.1827 14.3216C20.5048 13.4991 21.0044 12.8742 21.6815 12.4468C22.2926 12.0777 22.9657 11.851 23.7006 11.7668C23.7172 11.7668 23.7378 11.7636 23.7626 11.7571C24.0681 11.7377 24.2952 11.7409 24.4439 11.7668C24.9559 11.8445 25.311 12.0971 25.5092 12.5245C25.6908 12.8872 25.7404 13.3016 25.6578 13.7679C25.6495 13.8262 25.6454 13.8585 25.6454 13.865C25.6289 13.9557 25.6372 14.014 25.6702 14.0399L25.7074 14.069H25.9675C26.1822 14.069 26.2978 14.0496 26.3143 14.0107C26.3143 14.0302 26.463 13.5736 26.7603 12.6411C27.041 11.7344 27.1773 11.2746 27.169 11.2617C27.1525 11.2228 27.0906 11.2034 26.9832 11.2034H26.8841L26.785 11.2811C26.8015 11.2682 26.6323 11.3944 26.2772 11.66C26.0048 11.861 25.8684 11.9645 25.868 11.9705C25.8594 11.9637 25.8348 11.9411 25.7941 11.9028C25.4059 11.4948 24.8733 11.2649 24.1961 11.2131H23.6511C23.3868 11.2325 23.2341 11.2455 23.1928 11.252C22.2431 11.3815 21.3554 11.715 20.5295 12.2525C20.3396 12.3691 20.1001 12.5504 19.8111 12.7965C19.7343 12.8664 19.6605 12.9369 19.5898 13.008C19.4629 11.7924 19.3962 11.1746 19.3899 11.1548C19.3734 11.116 19.2537 11.0966 19.0307 11.0966H19.0183ZM25.8684 11.9708L25.868 11.9705C25.868 11.9707 25.8681 11.9708 25.8684 11.9708ZM18.4267 15.0918C18.4047 14.8649 18.3748 14.5563 18.337 14.1662C18.2462 13.2401 18.2008 12.7706 18.2008 12.7576C18.2008 12.7317 18.0191 12.9681 17.6557 13.4668L16.6152 14.8753L16.1074 15.5553L17.2841 15.565H18.3777C18.3809 15.4208 18.3962 15.2687 18.4237 15.1084C18.4247 15.1029 18.4257 15.0973 18.4267 15.0918Z" fill="url(#paint1_linear_616_1324)"/>
<path d="M14.4 29.4566L3.40645 21.3212C3.41469 21.1005 3.55263 20.9802 3.87635 20.9307C4.0744 20.9004 4.34198 20.8965 4.69193 20.9123L4.70002 20.9127C4.84959 20.9196 5.01412 20.93 5.1946 20.9435C5.25076 20.9477 5.30846 20.9521 5.36774 20.9569L12.129 25.3282L13.0581 24.9234L6.14194 20.1069C5.73149 19.6525 5.84364 19.5287 6.69236 19.6209C6.71562 19.6234 6.73945 19.6261 6.76382 19.6289C6.82513 19.6361 6.88995 19.6443 6.95838 19.6534C6.97024 19.655 6.98221 19.6566 6.99429 19.6583C7.0026 19.6594 7.01095 19.6606 7.01935 19.6617L14.4 24.3568L15.1742 23.9925L9.85806 20.5926C9.85784 20.5714 9.85817 20.5509 9.8591 20.5312C9.87305 20.2352 10.0201 20.1128 10.3809 20.0899C10.5297 20.0804 10.7148 20.0878 10.9419 20.1069C10.9754 20.129 11.0087 20.151 11.0419 20.1729C11.2539 20.3128 11.4615 20.4487 11.6646 20.5807C11.768 20.648 11.8702 20.7142 11.9714 20.7794C12.4791 21.1067 12.9582 21.409 13.4109 21.6879C13.5274 21.7597 13.6421 21.8299 13.7551 21.8985C13.9789 22.0346 14.196 22.1646 14.4065 22.2889C14.6019 22.4042 14.7916 22.5146 14.976 22.6201C15.0896 22.6851 15.2011 22.7483 15.3106 22.8098C15.3395 22.826 15.3683 22.8421 15.397 22.8581C15.5168 22.9249 15.6343 22.9896 15.7494 23.0522C15.8368 23.0997 15.9228 23.146 16.0076 23.1912C16.8708 23.651 17.5968 23.9879 18.2164 24.2273C19.2382 24.6221 19.9709 24.7516 20.5528 24.7297C20.6018 24.7279 20.6498 24.725 20.6968 24.7211C21.6802 24.422 22.4397 24.1401 23.0804 23.826C23.4708 23.6347 23.8171 23.4314 24.143 23.2052C24.9436 22.6494 25.6215 21.9548 26.529 20.9569C24.1996 22.0455 22.4361 22.5085 20.6673 22.2828C20.5647 22.2697 20.462 22.2543 20.3592 22.2365C20.024 22.1786 19.6874 22.096 19.3456 21.9881C18.8706 21.8382 18.3854 21.6395 17.8796 21.391C17.7901 21.347 17.7 21.3015 17.6092 21.2544C17.0061 20.9416 16.3721 20.5598 15.6903 20.1069C15.7759 20.1143 15.8606 20.1212 15.9446 20.1276C16.453 20.1665 16.9339 20.1874 17.3954 20.1903C18.0866 20.1946 18.7343 20.1584 19.3662 20.0814C20.0046 20.0036 20.6268 19.884 21.2611 19.7223C21.895 19.5606 22.5409 19.3567 23.2272 19.1102C23.6954 18.9421 24.1824 18.7541 24.6971 18.5461C24.7957 18.5062 24.8954 18.4657 24.9961 18.4243C25.2909 18.3034 25.5948 18.1762 25.9097 18.0427C29.0515 15.9318 31.4781 15.2277 34.7865 16.0212C36.2917 16.3822 37.9794 17.0532 40 18.0427C38.1198 19.1054 36.7061 19.9391 35.5637 20.6921C34.0774 21.6718 33.0501 22.5147 32.0516 23.5473C27.7772 27.5237 25.7345 29.2212 23.9484 29.4566C20.1073 30.2051 18.0237 30.1568 14.4 29.4566Z" fill="url(#paint2_linear_616_1324)"/>
<path d="M49.9561 9.94043L47.3857 18H45.0068L48.6914 8.04688H50.1953L49.9561 9.94043ZM52.0889 18L49.5117 9.94043L49.2451 8.04688H50.7695L54.4678 18H52.0889ZM51.9795 14.2949V16.0176H46.791V14.2949H51.9795Z" fill="#CCCC00"/>
<path d="M58.2754 16.4756C58.5033 16.4756 58.7015 16.4323 58.8701 16.3457C59.0387 16.2591 59.1686 16.1383 59.2598 15.9834C59.3555 15.8239 59.4033 15.6325 59.4033 15.4092H61.4131C61.4131 15.9469 61.2741 16.4209 60.9961 16.8311C60.7227 17.2412 60.3535 17.5625 59.8887 17.7949C59.4238 18.0228 58.8997 18.1367 58.3164 18.1367C57.7422 18.1367 57.2409 18.0433 56.8125 17.8564C56.3841 17.665 56.0264 17.3984 55.7393 17.0566C55.4521 16.7148 55.2357 16.3184 55.0898 15.8672C54.9486 15.4115 54.8779 14.9193 54.8779 14.3906V14.2129C54.8779 13.6888 54.9486 13.1989 55.0898 12.7432C55.2357 12.2874 55.4521 11.8887 55.7393 11.5469C56.0264 11.2051 56.3818 10.9408 56.8057 10.7539C57.234 10.5625 57.7354 10.4668 58.3096 10.4668C58.9157 10.4668 59.4512 10.583 59.916 10.8154C60.3854 11.0479 60.7523 11.3828 61.0166 11.8203C61.2809 12.2533 61.4131 12.7751 61.4131 13.3857H59.4033C59.4033 13.1488 59.36 12.9368 59.2734 12.75C59.1914 12.5586 59.0638 12.4082 58.8906 12.2988C58.722 12.1849 58.5124 12.1279 58.2617 12.1279C58.002 12.1279 57.7878 12.1849 57.6191 12.2988C57.4551 12.4082 57.3298 12.5609 57.2432 12.7568C57.1566 12.9528 57.0973 13.1761 57.0654 13.4268C57.0335 13.6729 57.0176 13.9349 57.0176 14.2129V14.3906C57.0176 14.6732 57.0335 14.9421 57.0654 15.1973C57.0973 15.4479 57.1566 15.6689 57.2432 15.8604C57.3343 16.0518 57.4619 16.2021 57.626 16.3115C57.79 16.4209 58.0065 16.4756 58.2754 16.4756ZM65.5625 16.4756C65.7904 16.4756 65.9886 16.4323 66.1572 16.3457C66.3258 16.2591 66.4557 16.1383 66.5469 15.9834C66.6426 15.8239 66.6904 15.6325 66.6904 15.4092H68.7002C68.7002 15.9469 68.5612 16.4209 68.2832 16.8311C68.0098 17.2412 67.6406 17.5625 67.1758 17.7949C66.7109 18.0228 66.1868 18.1367 65.6035 18.1367C65.0293 18.1367 64.528 18.0433 64.0996 17.8564C63.6712 17.665 63.3135 17.3984 63.0264 17.0566C62.7393 16.7148 62.5228 16.3184 62.377 15.8672C62.2357 15.4115 62.165 14.9193 62.165 14.3906V14.2129C62.165 13.6888 62.2357 13.1989 62.377 12.7432C62.5228 12.2874 62.7393 11.8887 63.0264 11.5469C63.3135 11.2051 63.6689 10.9408 64.0928 10.7539C64.5212 10.5625 65.0225 10.4668 65.5967 10.4668C66.2028 10.4668 66.7383 10.583 67.2031 10.8154C67.6725 11.0479 68.0394 11.3828 68.3037 11.8203C68.568 12.2533 68.7002 12.7751 68.7002 13.3857H66.6904C66.6904 13.1488 66.6471 12.9368 66.5605 12.75C66.4785 12.5586 66.3509 12.4082 66.1777 12.2988C66.0091 12.1849 65.7995 12.1279 65.5488 12.1279C65.2891 12.1279 65.0749 12.1849 64.9062 12.2988C64.7422 12.4082 64.6169 12.5609 64.5303 12.7568C64.4437 12.9528 64.3844 13.1761 64.3525 13.4268C64.3206 13.6729 64.3047 13.9349 64.3047 14.2129V14.3906C64.3047 14.6732 64.3206 14.9421 64.3525 15.1973C64.3844 15.4479 64.4437 15.6689 64.5303 15.8604C64.6214 16.0518 64.749 16.2021 64.9131 16.3115C65.0771 16.4209 65.2936 16.4756 65.5625 16.4756ZM73.2461 18.1367C72.6582 18.1367 72.1318 18.0433 71.667 17.8564C71.2021 17.6696 70.8079 17.4121 70.4844 17.084C70.1654 16.7513 69.9215 16.3685 69.7529 15.9355C69.5843 15.5026 69.5 15.04 69.5 14.5479V14.2881C69.5 13.7367 69.5775 13.2285 69.7324 12.7637C69.8874 12.2988 70.113 11.8955 70.4092 11.5537C70.71 11.2074 71.0791 10.9408 71.5166 10.7539C71.9541 10.5625 72.4531 10.4668 73.0137 10.4668C73.5378 10.4668 74.0049 10.5534 74.415 10.7266C74.8252 10.8952 75.1715 11.139 75.4541 11.458C75.7367 11.7725 75.9508 12.153 76.0967 12.5996C76.2471 13.0417 76.3223 13.5384 76.3223 14.0898V14.9648H70.3613V13.5908H74.2305V13.4268C74.2305 13.167 74.1826 12.9391 74.0869 12.7432C73.9958 12.5472 73.859 12.3968 73.6768 12.292C73.499 12.1826 73.2734 12.1279 73 12.1279C72.7402 12.1279 72.5238 12.1826 72.3506 12.292C72.1774 12.4014 72.0384 12.5563 71.9336 12.7568C71.8333 12.9528 71.7604 13.1829 71.7148 13.4473C71.6693 13.707 71.6465 13.9873 71.6465 14.2881V14.5479C71.6465 14.835 71.6852 15.097 71.7627 15.334C71.8402 15.571 71.9541 15.7738 72.1045 15.9424C72.2549 16.111 72.4372 16.2432 72.6514 16.3389C72.8656 16.4346 73.1094 16.4824 73.3828 16.4824C73.7201 16.4824 74.0413 16.4186 74.3467 16.291C74.652 16.1589 74.9163 15.9538 75.1396 15.6758L76.1377 16.8174C75.9873 17.0361 75.7754 17.248 75.502 17.4531C75.2331 17.6536 74.9095 17.8177 74.5312 17.9453C74.153 18.0729 73.7246 18.1367 73.2461 18.1367ZM81.2988 15.9424C81.2988 15.8057 81.2555 15.6849 81.1689 15.5801C81.0869 15.4753 80.9365 15.3796 80.7178 15.293C80.5036 15.2064 80.2005 15.1198 79.8086 15.0332C79.4395 14.9557 79.0954 14.8555 78.7764 14.7324C78.4574 14.6048 78.1794 14.4521 77.9424 14.2744C77.7054 14.0921 77.5208 13.8779 77.3887 13.6318C77.2565 13.3812 77.1904 13.0964 77.1904 12.7773C77.1904 12.4674 77.2565 12.1735 77.3887 11.8955C77.5254 11.6175 77.7214 11.3714 77.9766 11.1572C78.2363 10.943 78.5508 10.7744 78.9199 10.6514C79.2936 10.5283 79.7174 10.4668 80.1914 10.4668C80.8431 10.4668 81.4059 10.5693 81.8799 10.7744C82.3538 10.9749 82.7184 11.2575 82.9736 11.6221C83.2288 11.9821 83.3564 12.3945 83.3564 12.8594H81.2236C81.2236 12.668 81.1872 12.5016 81.1143 12.3604C81.0413 12.2191 80.9297 12.1097 80.7793 12.0322C80.6289 11.9502 80.4307 11.9092 80.1846 11.9092C79.9932 11.9092 79.8245 11.9434 79.6787 12.0117C79.5374 12.0755 79.4258 12.1644 79.3438 12.2783C79.2663 12.3923 79.2275 12.5244 79.2275 12.6748C79.2275 12.7796 79.2503 12.8753 79.2959 12.9619C79.346 13.0439 79.4212 13.1214 79.5215 13.1943C79.6263 13.2627 79.7607 13.3242 79.9248 13.3789C80.0934 13.4336 80.2985 13.486 80.54 13.5361C81.055 13.6318 81.5244 13.7663 81.9482 13.9395C82.3766 14.1126 82.7184 14.3519 82.9736 14.6572C83.2334 14.9626 83.3633 15.3659 83.3633 15.8672C83.3633 16.1953 83.2881 16.4961 83.1377 16.7695C82.9919 17.043 82.7799 17.2822 82.502 17.4873C82.224 17.6924 81.8913 17.8519 81.5039 17.9658C81.1165 18.0798 80.679 18.1367 80.1914 18.1367C79.4941 18.1367 78.904 18.0114 78.4209 17.7607C77.9378 17.5101 77.5732 17.1956 77.3271 16.8174C77.0856 16.4346 76.9648 16.0426 76.9648 15.6416H78.9678C78.9769 15.8877 79.0384 16.0882 79.1523 16.2432C79.2708 16.3981 79.4235 16.512 79.6104 16.585C79.7972 16.6533 80.0068 16.6875 80.2393 16.6875C80.4717 16.6875 80.6654 16.6556 80.8203 16.5918C80.9753 16.528 81.0938 16.4414 81.1758 16.332C81.2578 16.2181 81.2988 16.0882 81.2988 15.9424ZM88.4902 15.9424C88.4902 15.8057 88.4469 15.6849 88.3604 15.5801C88.2783 15.4753 88.1279 15.3796 87.9092 15.293C87.695 15.2064 87.3919 15.1198 87 15.0332C86.6309 14.9557 86.2868 14.8555 85.9678 14.7324C85.6488 14.6048 85.3708 14.4521 85.1338 14.2744C84.8968 14.0921 84.7122 13.8779 84.5801 13.6318C84.4479 13.3812 84.3818 13.0964 84.3818 12.7773C84.3818 12.4674 84.4479 12.1735 84.5801 11.8955C84.7168 11.6175 84.9128 11.3714 85.168 11.1572C85.4277 10.943 85.7422 10.7744 86.1113 10.6514C86.485 10.5283 86.9089 10.4668 87.3828 10.4668C88.0345 10.4668 88.5973 10.5693 89.0713 10.7744C89.5452 10.9749 89.9098 11.2575 90.165 11.6221C90.4202 11.9821 90.5479 12.3945 90.5479 12.8594H88.415C88.415 12.668 88.3786 12.5016 88.3057 12.3604C88.2327 12.2191 88.1211 12.1097 87.9707 12.0322C87.8203 11.9502 87.6221 11.9092 87.376 11.9092C87.1846 11.9092 87.016 11.9434 86.8701 12.0117C86.7288 12.0755 86.6172 12.1644 86.5352 12.2783C86.4577 12.3923 86.4189 12.5244 86.4189 12.6748C86.4189 12.7796 86.4417 12.8753 86.4873 12.9619C86.5374 13.0439 86.6126 13.1214 86.7129 13.1943C86.8177 13.2627 86.9521 13.3242 87.1162 13.3789C87.2848 13.4336 87.4899 13.486 87.7314 13.5361C88.2464 13.6318 88.7158 13.7663 89.1396 13.9395C89.568 14.1126 89.9098 14.3519 90.165 14.6572C90.4248 14.9626 90.5547 15.3659 90.5547 15.8672C90.5547 16.1953 90.4795 16.4961 90.3291 16.7695C90.1833 17.043 89.9714 17.2822 89.6934 17.4873C89.4154 17.6924 89.0827 17.8519 88.6953 17.9658C88.3079 18.0798 87.8704 18.1367 87.3828 18.1367C86.6855 18.1367 86.0954 18.0114 85.6123 17.7607C85.1292 17.5101 84.7646 17.1956 84.5186 16.8174C84.277 16.4346 84.1562 16.0426 84.1562 15.6416H86.1592C86.1683 15.8877 86.2298 16.0882 86.3438 16.2432C86.4622 16.3981 86.6149 16.512 86.8018 16.585C86.9886 16.6533 87.1982 16.6875 87.4307 16.6875C87.6631 16.6875 87.8568 16.6556 88.0117 16.5918C88.1667 16.528 88.2852 16.4414 88.3672 16.332C88.4492 16.2181 88.4902 16.0882 88.4902 15.9424ZM100.979 14.377V14.2334C100.979 13.6911 101.057 13.1921 101.212 12.7363C101.367 12.276 101.595 11.8773 101.896 11.54C102.196 11.2028 102.565 10.9408 103.003 10.7539C103.44 10.5625 103.942 10.4668 104.507 10.4668C105.081 10.4668 105.587 10.5625 106.024 10.7539C106.466 10.9408 106.838 11.2028 107.139 11.54C107.439 11.8773 107.667 12.276 107.822 12.7363C107.977 13.1921 108.055 13.6911 108.055 14.2334V14.377C108.055 14.9147 107.977 15.4137 107.822 15.874C107.667 16.3298 107.439 16.7285 107.139 17.0703C106.838 17.4076 106.469 17.6696 106.031 17.8564C105.594 18.0433 105.09 18.1367 104.521 18.1367C103.955 18.1367 103.452 18.0433 103.01 17.8564C102.568 17.6696 102.196 17.4076 101.896 17.0703C101.595 16.7285 101.367 16.3298 101.212 15.874C101.057 15.4137 100.979 14.9147 100.979 14.377ZM103.119 14.2334V14.377C103.119 14.6686 103.142 14.9421 103.188 15.1973C103.238 15.4525 103.317 15.6758 103.427 15.8672C103.536 16.0586 103.68 16.209 103.857 16.3184C104.04 16.4232 104.261 16.4756 104.521 16.4756C104.78 16.4756 104.999 16.4232 105.177 16.3184C105.354 16.209 105.498 16.0586 105.607 15.8672C105.717 15.6758 105.794 15.4525 105.84 15.1973C105.89 14.9421 105.915 14.6686 105.915 14.377V14.2334C105.915 13.9463 105.89 13.6774 105.84 13.4268C105.794 13.1715 105.717 12.946 105.607 12.75C105.498 12.554 105.352 12.4014 105.17 12.292C104.992 12.1826 104.771 12.1279 104.507 12.1279C104.252 12.1279 104.035 12.1826 103.857 12.292C103.68 12.4014 103.536 12.554 103.427 12.75C103.317 12.946 103.238 13.1715 103.188 13.4268C103.142 13.6774 103.119 13.9463 103.119 14.2334Z" fill="#16A245"/>
<path d="M99.8721 12.7432V16.7559C99.708 16.9427 99.4574 17.1432 99.1201 17.3574C98.7874 17.5716 98.3613 17.7562 97.8418 17.9111C97.3223 18.0615 96.7025 18.1367 95.9824 18.1367C95.3307 18.1367 94.7383 18.0319 94.2051 17.8223C93.6719 17.6081 93.2139 17.2959 92.8311 16.8857C92.4482 16.471 92.152 15.9652 91.9424 15.3682C91.7373 14.7712 91.6348 14.0876 91.6348 13.3174V12.7295C91.6348 11.9593 91.7373 11.2757 91.9424 10.6787C92.1475 10.0817 92.4368 9.57812 92.8105 9.16797C93.1842 8.75326 93.6286 8.4388 94.1436 8.22461C94.6585 8.01042 95.2282 7.90332 95.8525 7.90332C96.7412 7.90332 97.4681 8.04688 98.0332 8.33398C98.5983 8.61654 99.0267 9.00846 99.3184 9.50977C99.6146 10.0111 99.7969 10.5876 99.8652 11.2393H97.7188C97.6732 10.9066 97.582 10.6195 97.4453 10.3779C97.3132 10.1364 97.124 9.95182 96.8779 9.82422C96.6318 9.69206 96.3128 9.62598 95.9209 9.62598C95.6064 9.62598 95.3216 9.69206 95.0664 9.82422C94.8158 9.95182 94.6038 10.1455 94.4307 10.4053C94.2575 10.665 94.1253 10.9886 94.0342 11.376C93.943 11.7588 93.8975 12.2054 93.8975 12.7158V13.3174C93.8975 13.8278 93.943 14.2767 94.0342 14.6641C94.1299 15.0514 94.2689 15.375 94.4512 15.6348C94.6335 15.89 94.8636 16.0837 95.1416 16.2158C95.4242 16.348 95.7523 16.4141 96.126 16.4141C96.4176 16.4141 96.6637 16.3913 96.8643 16.3457C97.0648 16.2956 97.2288 16.234 97.3564 16.1611C97.484 16.0837 97.5798 16.013 97.6436 15.9492V14.2949H95.873V12.7432H99.8721Z" fill="#2F4F4F"/>
<defs>
<linearGradient id="paint0_linear_616_1324" x1="20" y1="0" x2="20" y2="30" gradientUnits="userSpaceOnUse">
<stop stop-color="#1BC956"/>
<stop offset="1" stop-color="#0D632A"/>
</linearGradient>
<linearGradient id="paint1_linear_616_1324" x1="20" y1="0" x2="20" y2="30" gradientUnits="userSpaceOnUse">
<stop stop-color="#1BC956"/>
<stop offset="1" stop-color="#0D632A"/>
</linearGradient>
<linearGradient id="paint2_linear_616_1324" x1="20" y1="0" x2="20" y2="30" gradientUnits="userSpaceOnUse">
<stop stop-color="#1BC956"/>
<stop offset="1" stop-color="#0D632A"/>
</linearGradient>
</defs>
</svg>
