<svg width="40" height="30" viewBox="0 0 40 30" fill="none" xmlns="http://www.w3.org/2000/svg">
<path d="M25.6 0.543405C21.9763 -0.156793 19.8927 -0.205075 16.0516 0.543405C14.2655 0.778829 12.2228 2.47635 7.94839 6.45272C6.9499 7.48526 5.9226 8.32824 4.43633 9.30786C3.29386 10.0609 1.88021 10.8946 0 11.9573C2.02061 12.9468 3.70831 13.6178 5.21349 13.9788C8.52189 14.7723 10.9485 14.0682 14.0903 11.9573C14.4052 11.8238 14.7091 11.6966 15.0039 11.5757C15.1046 11.5343 15.2043 11.4938 15.3029 11.4539C15.8176 11.2459 16.3046 11.0579 16.7728 10.8898C17.4591 10.6433 18.105 10.4394 18.7389 10.2777C19.3732 10.116 19.9954 9.99638 20.6338 9.91857C21.2657 9.84155 21.9134 9.80543 22.6046 9.80975C23.0661 9.81263 23.547 9.83355 24.0554 9.87237C24.1394 9.87878 24.2241 9.88568 24.3097 9.89307C23.6279 9.44023 22.9939 9.05837 22.3908 8.74561C22.3 8.69851 22.2099 8.65297 22.1204 8.60899C21.6146 8.36049 21.1294 8.16184 20.6544 8.0119C20.3126 7.90402 19.976 7.82135 19.6408 7.76348C19.538 7.74573 19.4353 7.73031 19.3327 7.71722C17.5639 7.49153 15.8004 7.95455 13.471 9.0431C14.3785 8.04518 15.0564 7.35062 15.857 6.79484C16.1829 6.56858 16.5292 6.36532 16.9196 6.17396C17.5603 5.85994 18.3198 5.57796 19.3032 5.27895C19.3502 5.27502 19.3982 5.27211 19.4472 5.27026C20.0291 5.2484 20.7618 5.37795 21.7836 5.77268C22.4032 6.01207 23.1292 6.34899 23.9924 6.80883C24.0772 6.85395 24.1632 6.90026 24.2506 6.94777C24.3657 7.01038 24.4832 7.07508 24.603 7.14193C24.6317 7.15791 24.6605 7.174 24.6894 7.19022C24.7989 7.25165 24.9104 7.31486 25.024 7.37987C25.2084 7.48544 25.3981 7.5958 25.5935 7.7111C25.804 7.83539 26.0211 7.96543 26.2449 8.10145C26.3579 8.17014 26.4726 8.24034 26.5891 8.3121C27.0418 8.59097 27.5209 8.89326 28.0286 9.22063C28.1297 9.28584 28.232 9.35205 28.3354 9.41926C28.5385 9.55128 28.7461 9.68718 28.9581 9.82708C28.9913 9.84898 29.0246 9.87098 29.0581 9.89307C29.2852 9.91219 29.4703 9.91961 29.6191 9.91014C29.9799 9.88717 30.1269 9.7648 30.1409 9.46884C30.1418 9.44913 30.1422 9.42865 30.1419 9.40737L24.8258 6.0075L25.6 5.64322L32.9806 10.3383C33.0013 10.3411 33.0216 10.3439 33.0416 10.3466C33.11 10.3557 33.1749 10.3639 33.2362 10.3711C33.2606 10.3739 33.2844 10.3766 33.3076 10.3791C34.1564 10.4713 34.2685 10.3475 33.8581 9.89307L26.9419 5.07658L27.871 4.67183L34.6323 9.0431C34.6915 9.04786 34.7492 9.05234 34.8054 9.05653C34.9859 9.07 35.1504 9.08042 35.3 9.08729L35.3081 9.08766C35.658 9.10349 35.9256 9.09964 36.1236 9.06932C36.4474 9.01976 36.5853 8.89949 36.5935 8.67883L25.6 0.543405Z" fill="url(#paint0_linear_604_92)"/>
<path fill-rule="evenodd" clip-rule="evenodd" d="M19.0183 11.0966L18.7334 11.1063C18.6921 11.1257 18.6674 11.1386 18.6591 11.1451C18.6261 11.171 17.8911 12.1586 16.4542 14.1079L14.2121 17.1192C13.9892 17.3588 13.5886 17.4883 13.0106 17.5078C12.8537 17.5078 12.7587 17.5272 12.7257 17.566L12.6142 17.9546C12.6142 17.974 12.6307 17.9967 12.6637 18.0226L12.7009 18.0517H12.7876C12.7959 18.0517 13.0106 18.0453 13.4317 18.0323C14.0428 18.0194 14.6911 18.0258 15.3765 18.0517H15.5252L15.5623 18.0226C15.5954 17.9967 15.6284 17.9222 15.6614 17.7992L15.7234 17.6049L15.711 17.5757C15.6779 17.5304 15.6036 17.5078 15.488 17.5078C15.2155 17.4883 15.0379 17.4398 14.9554 17.362C14.8975 17.3167 14.8852 17.2617 14.9182 17.1969C14.9265 17.1645 15.0627 16.9735 15.327 16.6238L15.6986 16.1089H17.1231C17.8097 16.1089 18.2459 16.1124 18.4318 16.1193C18.4654 16.2781 18.5135 16.4297 18.576 16.5738C18.5823 16.6333 18.5894 16.6985 18.5972 16.7695C18.6385 17.1904 18.655 17.4041 18.6467 17.4106C18.6302 17.4365 18.527 17.4624 18.337 17.4883C18.271 17.4883 18.1388 17.4948 17.9406 17.5078C17.7177 17.5078 17.5979 17.5272 17.5814 17.566C17.4988 17.715 17.4576 17.8413 17.4576 17.9449C17.4576 17.9708 17.4741 17.9967 17.5071 18.0226L17.5443 18.0517H17.6929C18.3759 18.0226 19.2358 18.0171 20.2725 18.0351C20.5653 18.1362 20.8863 18.2065 21.2356 18.246H21.2975C21.6279 18.2719 21.9293 18.2719 22.2018 18.246C22.5982 18.2072 22.9326 18.1456 23.2052 18.0614C23.585 17.9578 23.8988 17.8186 24.1466 17.6437L24.2457 17.5757L24.32 17.6535C24.4026 17.7312 24.5306 17.8251 24.704 17.9352C24.8609 18.0323 24.9641 18.0614 25.0137 18.0226C25.0385 18.0032 25.1541 17.6697 25.3605 17.0221C25.5587 16.3745 25.6702 16.0409 25.695 16.0215C25.7197 16.0021 25.7404 15.9891 25.7569 15.9827C25.823 15.9568 26.0088 15.9438 26.3143 15.9438H26.5001L26.5373 15.9147C26.5703 15.8888 26.6075 15.8143 26.6488 15.6912C26.6818 15.5617 26.6942 15.4873 26.6859 15.4678C26.6529 15.4225 26.529 15.4031 26.3143 15.4095C25.3316 15.4354 24.3117 15.4322 23.2547 15.3998H23.0441L23.007 15.429C22.9739 15.4549 22.9368 15.5293 22.8955 15.6524C22.8625 15.7819 22.8501 15.8564 22.8583 15.8758C22.8914 15.9211 23.0895 15.9438 23.4529 15.9438C23.9401 15.9503 24.2168 15.9665 24.2828 15.9924C24.3159 15.9924 24.3324 15.9989 24.3324 16.0118C24.3324 15.9989 24.2292 16.3162 24.0227 16.9638C23.9566 17.0933 23.8328 17.2196 23.6511 17.3426L23.552 17.4009C23.007 17.7053 22.3339 17.7959 21.5329 17.6729C21.414 17.6517 21.3022 17.6267 21.1975 17.5979C21.1941 17.5844 21.1821 17.5641 21.1613 17.5369L21.1117 17.5078H20.924C20.8207 17.4673 20.7264 17.4219 20.641 17.3718C20.3768 17.2293 20.1745 17.048 20.0341 16.8278C20.0108 16.7919 19.9893 16.7546 19.9696 16.716C19.9368 16.4098 19.8953 16.0077 19.845 15.5098C19.856 15.4393 19.8695 15.3671 19.8854 15.293C19.9432 14.9821 20.0423 14.6583 20.1827 14.3216C20.5048 13.4991 21.0044 12.8742 21.6815 12.4468C22.2926 12.0777 22.9657 11.851 23.7006 11.7668C23.7172 11.7668 23.7378 11.7636 23.7626 11.7571C24.0681 11.7377 24.2952 11.7409 24.4439 11.7668C24.9559 11.8445 25.311 12.0971 25.5092 12.5245C25.6908 12.8872 25.7404 13.3016 25.6578 13.7679C25.6495 13.8262 25.6454 13.8585 25.6454 13.865C25.6289 13.9557 25.6372 14.014 25.6702 14.0399L25.7074 14.069H25.9675C26.1822 14.069 26.2978 14.0496 26.3143 14.0107C26.3143 14.0302 26.463 13.5736 26.7603 12.6411C27.041 11.7344 27.1773 11.2746 27.169 11.2617C27.1525 11.2228 27.0906 11.2034 26.9832 11.2034H26.8841L26.785 11.2811C26.8015 11.2682 26.6323 11.3944 26.2772 11.66C26.0048 11.861 25.8684 11.9645 25.868 11.9705C25.8594 11.9637 25.8348 11.9411 25.7941 11.9028C25.4059 11.4948 24.8733 11.2649 24.1961 11.2131H23.6511C23.3868 11.2325 23.2341 11.2455 23.1928 11.252C22.2431 11.3815 21.3554 11.715 20.5295 12.2525C20.3396 12.3691 20.1001 12.5504 19.8111 12.7965C19.7343 12.8664 19.6605 12.9369 19.5898 13.008C19.4629 11.7924 19.3962 11.1746 19.3899 11.1548C19.3734 11.116 19.2537 11.0966 19.0307 11.0966H19.0183ZM25.8684 11.9708L25.868 11.9705C25.868 11.9707 25.8681 11.9708 25.8684 11.9708ZM18.4267 15.0918C18.4047 14.8649 18.3748 14.5563 18.337 14.1662C18.2462 13.2401 18.2008 12.7706 18.2008 12.7576C18.2008 12.7317 18.0191 12.9681 17.6557 13.4668L16.6152 14.8753L16.1074 15.5553L17.2841 15.565H18.3777C18.3809 15.4208 18.3962 15.2687 18.4237 15.1084C18.4247 15.1029 18.4257 15.0973 18.4267 15.0918Z" fill="url(#paint1_linear_604_92)"/>
<path d="M14.4 29.4566L3.40645 21.3212C3.41469 21.1005 3.55263 20.9802 3.87635 20.9307C4.0744 20.9004 4.34198 20.8965 4.69193 20.9123L4.70002 20.9127C4.84959 20.9196 5.01412 20.93 5.1946 20.9435C5.25076 20.9477 5.30846 20.9521 5.36774 20.9569L12.129 25.3282L13.0581 24.9234L6.14194 20.1069C5.73149 19.6525 5.84364 19.5287 6.69236 19.6209C6.71562 19.6234 6.73945 19.6261 6.76382 19.6289C6.82513 19.6361 6.88995 19.6443 6.95838 19.6534C6.97024 19.655 6.98221 19.6566 6.99429 19.6583C7.0026 19.6594 7.01095 19.6606 7.01935 19.6617L14.4 24.3568L15.1742 23.9925L9.85806 20.5926C9.85784 20.5714 9.85817 20.5509 9.8591 20.5312C9.87305 20.2352 10.0201 20.1128 10.3809 20.0899C10.5297 20.0804 10.7148 20.0878 10.9419 20.1069C10.9754 20.129 11.0087 20.151 11.0419 20.1729C11.2539 20.3128 11.4615 20.4487 11.6646 20.5807C11.768 20.648 11.8702 20.7142 11.9714 20.7794C12.4791 21.1067 12.9582 21.409 13.4109 21.6879C13.5274 21.7597 13.6421 21.8299 13.7551 21.8985C13.9789 22.0346 14.196 22.1646 14.4065 22.2889C14.6019 22.4042 14.7916 22.5146 14.976 22.6201C15.0896 22.6851 15.2011 22.7483 15.3106 22.8098C15.3395 22.826 15.3683 22.8421 15.397 22.8581C15.5168 22.9249 15.6343 22.9896 15.7494 23.0522C15.8368 23.0997 15.9228 23.146 16.0076 23.1912C16.8708 23.651 17.5968 23.9879 18.2164 24.2273C19.2382 24.6221 19.9709 24.7516 20.5528 24.7297C20.6018 24.7279 20.6498 24.725 20.6968 24.7211C21.6802 24.422 22.4397 24.1401 23.0804 23.826C23.4708 23.6347 23.8171 23.4314 24.143 23.2052C24.9436 22.6494 25.6215 21.9548 26.529 20.9569C24.1996 22.0455 22.4361 22.5085 20.6673 22.2828C20.5647 22.2697 20.462 22.2543 20.3592 22.2365C20.024 22.1786 19.6874 22.096 19.3456 21.9881C18.8706 21.8382 18.3854 21.6395 17.8796 21.391C17.7901 21.347 17.7 21.3015 17.6092 21.2544C17.0061 20.9416 16.3721 20.5598 15.6903 20.1069C15.7759 20.1143 15.8606 20.1212 15.9446 20.1276C16.453 20.1665 16.9339 20.1874 17.3954 20.1903C18.0866 20.1946 18.7343 20.1584 19.3662 20.0814C20.0046 20.0036 20.6268 19.884 21.2611 19.7223C21.895 19.5606 22.5409 19.3567 23.2272 19.1102C23.6954 18.9421 24.1824 18.7541 24.6971 18.5461C24.7957 18.5062 24.8954 18.4657 24.9961 18.4243C25.2909 18.3034 25.5948 18.1762 25.9097 18.0427C29.0515 15.9318 31.4781 15.2277 34.7865 16.0212C36.2917 16.3822 37.9794 17.0532 40 18.0427C38.1198 19.1054 36.7061 19.9391 35.5637 20.6921C34.0774 21.6718 33.0501 22.5147 32.0516 23.5473C27.7772 27.5237 25.7345 29.2212 23.9484 29.4566C20.1073 30.2051 18.0237 30.1568 14.4 29.4566Z" fill="url(#paint2_linear_604_92)"/>
<defs>
<linearGradient id="paint0_linear_604_92" x1="20" y1="0" x2="20" y2="30" gradientUnits="userSpaceOnUse">
<stop stop-color="#1BC956"/>
<stop offset="1" stop-color="#0D632A"/>
</linearGradient>
<linearGradient id="paint1_linear_604_92" x1="20" y1="0" x2="20" y2="30" gradientUnits="userSpaceOnUse">
<stop stop-color="#1BC956"/>
<stop offset="1" stop-color="#0D632A"/>
</linearGradient>
<linearGradient id="paint2_linear_604_92" x1="20" y1="0" x2="20" y2="30" gradientUnits="userSpaceOnUse">
<stop stop-color="#1BC956"/>
<stop offset="1" stop-color="#0D632A"/>
</linearGradient>
</defs>
</svg>
