<svg width="22" height="16" viewBox="0 0 22 16" fill="none" xmlns="http://www.w3.org/2000/svg">
<path fill-rule="evenodd" clip-rule="evenodd" d="M21.5 9.99781C21.5 11.5081 21.2028 12.8 20.6403 13.7328C19.9438 14.8888 18.8591 15.5 17.51 15.5C14.8906 15.5 13.0306 12.0312 11.0619 8.35437C9.46625 5.375 7.65781 2 5.9375 2C5.05813 2 4.06812 2.9375 3.28906 4.50031C2.46036 6.21573 2.02022 8.09282 2 9.99781C2 11.2353 2.22312 12.2591 2.645 12.9584C3.06687 13.6578 3.67062 14 4.49 14C5.9075 14 7.38219 11.6994 8.63656 9.44844C8.83849 9.086 9.296 8.95588 9.65844 9.15781C10.0209 9.35974 10.151 9.81725 9.94906 10.1797C8.51188 12.7541 6.78781 15.5 4.49 15.5C3.13906 15.5 2.0525 14.8888 1.35969 13.7328C0.797188 12.7953 0.5 11.5081 0.5 9.99781C0.5221 7.86114 1.01573 5.75571 1.94563 3.83187C3.01438 1.68312 4.43188 0.5 5.9375 0.5C8.55688 0.5 10.4159 3.96875 12.3856 7.64563C13.9803 10.625 15.7887 14 17.51 14C18.3294 14 18.9331 13.6597 19.355 12.9584C19.7769 12.2572 20 11.2353 20 9.99781C19.9801 8.09289 19.5402 6.21581 18.7119 4.50031C17.9375 2.9375 16.9428 2 16.0625 2C15.2787 2 14.405 2.70125 13.3897 4.145C13.2377 4.3697 12.9762 4.49479 12.7058 4.47212C12.4355 4.44945 12.1984 4.28256 12.086 4.03568C11.9735 3.7888 12.0031 3.50042 12.1634 3.28156C13.0072 2.08719 14.3197 0.5 16.0625 0.5C17.5672 0.5 18.9847 1.68312 20.0534 3.83187C20.9837 5.75563 21.4776 7.86107 21.5 9.99781Z" fill="black"/>
</svg>
